<?xml version="1.0" encoding="UTF-8"?>
<!DOCTYPE svg PUBLIC "-//W3C//DTD SVG 1.1//EN" "http://www.w3.org/Graphics/SVG/1.1/DTD/svg11.dtd">
<!-- Creator: CorelDRAW -->
<svg xmlns="http://www.w3.org/2000/svg" xml:space="preserve" width="1.3546mm" height="1.3546mm" version="1.1" style="shape-rendering:geometricPrecision; text-rendering:geometricPrecision; image-rendering:optimizeQuality; fill-rule:evenodd; clip-rule:evenodd"
viewBox="0 0 135.46 135.46"
 xmlns:xlink="http://www.w3.org/1999/xlink"
 xmlns:xodm="http://www.corel.com/coreldraw/odm/2003">
 <defs>
  <style type="text/css">
   <![CDATA[
    .fil2 {fill:#0199D1}
    .fil1 {fill:#E00D82}
    .fil0 {fill:white}
   ]]>
  </style>
 </defs>
 <g id="Layer_x0020_1">
  <metadata id="CorelCorpID_0Corel-Layer"/>
  <path class="fil0" d="M67.72 0c37.41,0 67.74,30.33 67.74,67.74 0,37.41 -30.33,67.73 -67.74,67.73 -37.41,0 -67.73,-30.32 -67.73,-67.73 0,-37.41 30.32,-67.74 67.73,-67.74z"/>
  <path class="fil1" d="M12.38 106.81l0.6 0.82c12.32,16.88 32.25,27.84 54.74,27.84 37.41,0 67.74,-30.32 67.74,-67.73 0,-4.42 -0.43,-8.74 -1.24,-12.92 -0.41,-0.43 -1.12,-0.75 -2.48,-1.57 -3.65,-2.19 -7.09,-4.43 -10.68,-6.61 -1.83,-1.11 -3.52,-2.16 -5.35,-3.29 -1.31,-0.81 -4.15,-2.77 -5.57,-3.25l0.01 66.61 -18.59 0.08 -0.03 -66.84c-9.36,0.02 -18.73,0.11 -28.01,-0.05 -8.52,-0.14 -19.41,-0.97 -27.68,-0.33 -11.58,0.89 -12.51,9.05 -4.69,13.72 2.76,1.65 6.62,3.13 9.81,4.33 9.4,3.55 19.6,8.84 21.56,20.46 2.89,17.09 -9.63,27.66 -26.32,29.63 -14,1.65 -21.24,-2.2 -24.92,-2.51 0.36,0.54 0.73,1.08 1.1,1.61z"/>
  <path class="fil2" d="M0.08 71.33c0.13,0.45 0.44,0.68 1.16,1.21 5.45,4.04 10.79,9.36 17.17,13.95 2.61,1.88 6.18,4.51 9.79,5.76 4,1.38 9.87,-0.11 12.6,-2.13 2.93,-2.18 4.52,-7.18 1.65,-10.97 -5.25,-6.93 -18.89,-6.29 -29.51,-17.18 -9.75,-10 -8.23,-31 14.57,-36.45 8.19,-1.96 20.93,-1.2 29.96,-1.2 20.69,0 41.56,0.27 62.23,-0.01 -12.43,-14.85 -31.1,-24.31 -51.98,-24.31 -37.41,0 -67.73,30.33 -67.73,67.74 0,1.2 0.03,2.4 0.09,3.59z"/>
 </g>
</svg>
